<?xml version="1.0" encoding="UTF-8" standalone="no"?>
<!-- Created with Inkscape (http://www.inkscape.org/) -->

<svg
   version="1.1"
   id="svg2"
   width="1133.3333"
   height="1133.3333"
   viewBox="0 0 1133.3333 1133.3333"
   xmlns="http://www.w3.org/2000/svg"
   xmlns:svg="http://www.w3.org/2000/svg">
  <defs
     id="defs6">
    <clipPath
       clipPathUnits="userSpaceOnUse"
       id="clipPath268">
      <path
         d="m 3942.05,3506.93 c -424.05,18.28 -782.62,-310.65 -800.91,-734.69 -18.28,-424.04 310.65,-782.62 734.69,-800.91 424.05,-18.28 782.62,310.65 800.91,734.7 18.28,424.04 -310.65,782.62 -734.69,800.9 z M 5698.34,2584.49 C 5656.68,1618.25 4839.62,868.73 3873.38,910.398 2907.14,952.059 2157.63,1769.13 2199.29,2735.36 c 41.67,966.24 858.73,1715.75 1824.97,1674.09 966.23,-41.66 1715.75,-858.73 1674.08,-1824.96 z"
         id="path266" />
    </clipPath>
  </defs>
  <g
     id="g8"
     transform="matrix(1.3333333,0,0,-1.3333333,0,1133.3333)">
    <g
       id="g10"
       transform="scale(0.1)">
      <rect
         style="fill:#000000;stroke-width:7.5"
         id="rect1"
         width="8500"
         height="8500"
         x="0"
         y="-8500"
         transform="scale(1,-1)" />
      <path
         d="m 7512.48,5093.07 c 0,0 -84.53,-387.41 274.71,-711.43"
         style="fill:none;stroke:#ffffff;stroke-width:11.9802;stroke-linecap:round;stroke-linejoin:round;stroke-miterlimit:10;stroke-dasharray:none;stroke-opacity:1"
         id="path14" />
      <path
         d="m 6225,4300 c -29.04,193.18 -18.68,386.11 -33.58,581.22 -32.21,422.01 -20.78,843.81 71.26,1259.69 52.52,237.3 128.27,466.27 257.21,674.57 19.46,31.43 39.99,62.91 64.47,90.4 56.19,63.08 71.42,91.26 96.87,85.95 -4.03,10.82 -6.98,17.18 -6.98,17.18 -54.89,-29.67 -100.72,-58.09 -138.88,-84.48 -88.4,-61.13 -159.06,-144.62 -205.33,-241.64 -31.94,-67 -98.72,-173.08 -233.39,-286.7 -225.4,-190.18 -324.01,-598.73 -324.01,-598.73 -70.44,-295.84 -338.11,-471.94 -605.78,-563.51 -267.67,-91.57 -338.11,-324.02 -338.11,-436.72 0,-112.7 -105.65,-324.02 -140.87,-359.24 -35.22,-35.22 0,-183.14 0,-126.79 0,56.35 63.39,105.66 63.39,105.66 0,-112.7 91.57,-274.71 91.57,-239.49 0,35.22 70.44,324.02 70.44,324.02 7.04,-176.1 225.41,-387.42 225.41,-387.42 0,0 -98.62,112.7 0,239.49 98.61,126.79 91.57,246.54 91.57,246.54 70.44,-21.13 112.7,-246.54 112.7,-246.54 30.97,41.3 54.32,176.89 64.62,246.54 h 13.6 c 18.47,-76.11 69.71,-227.93 147.18,-288.8 98.62,-77.48 126.79,-288.8 126.79,-288.8 140.88,147.92 28.18,577.6 28.18,577.6 14.09,-35.22 28.17,-162.01 84.52,-288.8 56.36,-126.79 133.84,-331.06 133.84,-331.06 118.2,203.31 77.72,457.22 38.33,602.31 C 6044.59,4442.18 6126.68,4354 6225,4300"
         style="fill:#040606;fill-opacity:1;fill-rule:nonzero;stroke:none"
         id="path16" />
      <path
         d="m 7056.69,5818.25 c 0,0 514.2,-929.8 190.18,-2317.44 0,0 -200.75,-658.61 -327.54,-806.53 -126.79,-147.92 -162.01,-401.5 -162.01,-401.5 0,0 -140.87,500.11 -28.17,972.06 112.7,471.94 112.7,471.94 112.7,471.94 0,0 288.8,873.44 218.36,1281.98"
         style="fill:none;stroke:#ffffff;stroke-width:11.9802;stroke-linecap:round;stroke-linejoin:round;stroke-miterlimit:10;stroke-dasharray:none;stroke-opacity:1"
         id="path18" />
      <path
         d="m 7391.27,5469.57 c 0,0 -190.18,-767.78 521.25,-1324.25"
         style="fill:none;stroke:#ffffff;stroke-width:11.9802;stroke-linecap:round;stroke-linejoin:round;stroke-miterlimit:10;stroke-dasharray:none;stroke-opacity:1"
         id="path20" />
      <path
         d="m 7489.89,5124.42 c 0,0 -84.53,-387.41 274.71,-711.43"
         style="fill:none;stroke:#ffffff;stroke-width:11.9802;stroke-linecap:round;stroke-linejoin:round;stroke-miterlimit:10;stroke-dasharray:none;stroke-opacity:1"
         id="path22" />
      <path
         d="m 6778.46,6406.41 c 0,0 817.09,-542.38 1112.93,-1401.73"
         style="fill:none;stroke:#ffffff;stroke-width:11.9802;stroke-linecap:round;stroke-linejoin:round;stroke-miterlimit:10;stroke-dasharray:none;stroke-opacity:1"
         id="path24" />
      <path
         d="m 7370.14,6089.44 c 0,0 563.51,-366.29 605.78,-873.45"
         style="fill:none;stroke:#ffffff;stroke-width:11.9802;stroke-linecap:round;stroke-linejoin:round;stroke-miterlimit:10;stroke-dasharray:none;stroke-opacity:1"
         id="path26" />
      <path
         d="m 7017.95,6554.33 c 0,0 -126.79,119.75 -331.07,35.22"
         style="fill:none;stroke:#ffffff;stroke-width:11.9802;stroke-linecap:round;stroke-linejoin:round;stroke-miterlimit:10;stroke-dasharray:none;stroke-opacity:1"
         id="path28" />
      <path
         d="m 4862.52,4631.35 c 0,0 147.92,98.62 105.66,246.54 -42.27,147.92 267.66,197.23 584.64,422.63 316.97,225.41 394.46,478.99 408.54,591.69 14.09,112.7 42.27,154.96 105.66,197.23 63.4,42.26 154.97,253.58 154.97,253.58 0,0 98.61,253.58 274.71,112.7 176.1,-140.88 612.82,-591.69 436.72,-1824.37"
         style="fill:none;stroke:#ffffff;stroke-width:11.9802;stroke-linecap:round;stroke-linejoin:round;stroke-miterlimit:10;stroke-dasharray:none;stroke-opacity:1"
         id="path30" />
      <path
         d="m 5957.09,5864.81 c 0,0 187.42,245.76 455.08,140.1 0,0 -68.64,-165.17 -474.56,-216.42"
         style="fill:none;stroke:#ffffff;stroke-width:11.9802;stroke-linecap:round;stroke-linejoin:round;stroke-miterlimit:10;stroke-dasharray:none;stroke-opacity:1"
         id="path32" />
      <path
         d="m 6136.42,5828.77 c 0,0 141.92,-35.18 198.27,-70.4 0,0 -31.74,-169.05 -456.11,-105.65"
         style="fill:none;stroke:#ffffff;stroke-width:11.9802;stroke-linecap:round;stroke-linejoin:round;stroke-miterlimit:10;stroke-dasharray:none;stroke-opacity:1"
         id="path34" />
      <path
         d="m 6151.55,5638.63 c 0,0 35.22,-7.05 77.48,-70.44 0,0 -98.61,-63.4 -169.05,-70.44"
         style="fill:none;stroke:#ffffff;stroke-width:11.9802;stroke-linecap:round;stroke-linejoin:round;stroke-miterlimit:10;stroke-dasharray:none;stroke-opacity:1"
         id="path36" />
      <path
         d="m 5785.27,5518.88 c 274.71,35.22 408.54,-105.66 408.54,-105.66 0,0 -154.96,-63.39 -253.58,-70.44"
         style="fill:none;stroke:#ffffff;stroke-width:11.9802;stroke-linecap:round;stroke-linejoin:round;stroke-miterlimit:10;stroke-dasharray:none;stroke-opacity:1"
         id="path38" />
      <path
         d="m 5620.73,5352.11 c 398.97,30.46 439.25,-72.72 439.25,-72.72 0,0 -232.45,-91.57 -302.89,-84.53"
         style="fill:none;stroke:#ffffff;stroke-width:11.9802;stroke-linecap:round;stroke-linejoin:round;stroke-miterlimit:10;stroke-dasharray:none;stroke-opacity:1"
         id="path40" />
      <path
         d="m 5479.04,5250.93 c 299.55,-14.38 397.8,-140.59 397.8,-140.59 0,0 -256.04,-79.18 -557.7,48.46"
         style="fill:none;stroke:#ffffff;stroke-width:11.9802;stroke-linecap:round;stroke-linejoin:round;stroke-miterlimit:10;stroke-dasharray:none;stroke-opacity:1"
         id="path42" />
      <path
         d="m 5840.35,5101.57 c 0,0 219.63,-132.11 268.94,-294.12 0,0 -323.27,33.67 -563.14,288.02"
         style="fill:none;stroke:#ffffff;stroke-width:11.9802;stroke-linecap:round;stroke-linejoin:round;stroke-miterlimit:10;stroke-dasharray:none;stroke-opacity:1"
         id="path44" />
      <path
         d="m 5454.2,4990.59 c 253.58,56.35 331.07,-140.88 331.07,-140.88 0,0 -56.35,-21.13 -154.97,7.05"
         style="fill:none;stroke:#ffffff;stroke-width:11.9802;stroke-linecap:round;stroke-linejoin:round;stroke-miterlimit:10;stroke-dasharray:none;stroke-opacity:1"
         id="path46" />
      <path
         d="m 5176.22,5086.06 c 0,0 214.59,-109.56 256.85,-313.83 0,0 -295.84,21.13 -316.97,169.05"
         style="fill:none;stroke:#ffffff;stroke-width:11.9802;stroke-linecap:round;stroke-linejoin:round;stroke-miterlimit:10;stroke-dasharray:none;stroke-opacity:1"
         id="path48" />
      <path
         d="m 5174.54,4852.46 c 0,0 -2.09,-122.49 -16.18,-150.67 0,0 -292.85,130.51 -149.95,283.62"
         style="fill:none;stroke:#ffffff;stroke-width:11.9802;stroke-linecap:round;stroke-linejoin:round;stroke-miterlimit:10;stroke-dasharray:none;stroke-opacity:1"
         id="path50" />
      <path
         d="m 5294.26,5000.72 c 312,52.38 406.48,-298.93 406.48,-298.93 0,0 -225.4,14.09 -281.76,126.79"
         style="fill:none;stroke:#ffffff;stroke-width:11.9802;stroke-linecap:round;stroke-linejoin:round;stroke-miterlimit:10;stroke-dasharray:none;stroke-opacity:1"
         id="path52" />
      <path
         d="m 6002.5,5257.86 c 0,0 149.05,-63 191.31,-133.44 0,0 -144.44,-54.19 -315.23,-48.22"
         style="fill:none;stroke:#ffffff;stroke-width:11.9802;stroke-linecap:round;stroke-linejoin:round;stroke-miterlimit:10;stroke-dasharray:none;stroke-opacity:1"
         id="path54" />
      <path
         d="m 6295.95,6031.3 c 0,0 179.62,191.97 221.88,283.54 0,0 -211.32,-21.13 -288.8,-91.57 -77.48,-70.44 -169.05,-133.83 -169.05,-133.83"
         style="fill:none;stroke:#ffffff;stroke-width:11.9802;stroke-linecap:round;stroke-linejoin:round;stroke-miterlimit:10;stroke-dasharray:none;stroke-opacity:1"
         id="path56" />
      <path
         d="m 6419.52,6173.07 c 0,0 239.19,-20.24 253.28,-41.37 0,0 -162.01,-154.97 -204.28,-183.14"
         style="fill:none;stroke:#ffffff;stroke-width:11.9802;stroke-linecap:round;stroke-linejoin:round;stroke-miterlimit:10;stroke-dasharray:none;stroke-opacity:1"
         id="path58" />
      <path
         d="m 6355.82,5938.08 c 0,0 162.01,24.57 218.36,3.43 0,0 -112.7,-154.96 -162.01,-169.05"
         style="fill:none;stroke:#ffffff;stroke-width:11.9802;stroke-linecap:round;stroke-linejoin:round;stroke-miterlimit:10;stroke-dasharray:none;stroke-opacity:1"
         id="path60" />
      <path
         d="m 6307.9,5772.46 c 0,0 336.72,0 364.9,-14.09 0,0 -169.06,-218.36 -316.98,-211.31"
         style="fill:none;stroke:#ffffff;stroke-width:11.9802;stroke-linecap:round;stroke-linejoin:round;stroke-miterlimit:10;stroke-dasharray:none;stroke-opacity:1"
         id="path62" />
      <path
         d="m 6174.89,5537.62 c 424.84,61 603.57,-180.75 603.57,-180.75 0,0 -359.24,-28.17 -443.77,-14.09 -84.53,14.09 -183.14,54.24 -190.18,51.78"
         style="fill:none;stroke:#ffffff;stroke-width:11.9802;stroke-linecap:round;stroke-linejoin:round;stroke-miterlimit:10;stroke-dasharray:none;stroke-opacity:1"
         id="path64" />
      <path
         d="m 6595.47,5673.85 c 0,0 320.57,-63.73 353.92,-126.96 0,0 -172.13,-112.54 -312.41,-77.32"
         style="fill:none;stroke:#ffffff;stroke-width:11.9802;stroke-linecap:round;stroke-linejoin:round;stroke-miterlimit:10;stroke-dasharray:none;stroke-opacity:1"
         id="path66" />
      <path
         d="m 6119.34,5194.48 c 0,0 264.66,91.95 398.49,-337.72 0,0 -408.54,113.46 -443.76,229.3"
         style="fill:none;stroke:#ffffff;stroke-width:11.9802;stroke-linecap:round;stroke-linejoin:round;stroke-miterlimit:10;stroke-dasharray:none;stroke-opacity:1"
         id="path68" />
      <path
         d="m 6597.44,6060.81 c 0,0 141.07,6.6 203.31,0 0,0 83.36,-189.3 -339.27,-252.91"
         style="fill:none;stroke:#ffffff;stroke-width:11.9802;stroke-linecap:round;stroke-linejoin:round;stroke-miterlimit:10;stroke-dasharray:none;stroke-opacity:1"
         id="path70" />
      <path
         d="m 6634.45,5347.13 c 0,0 242.62,-131.14 242.62,-314.28 0,0 -373.33,147.92 -408.55,183.14"
         style="fill:none;stroke:#ffffff;stroke-width:11.9802;stroke-linecap:round;stroke-linejoin:round;stroke-miterlimit:10;stroke-dasharray:none;stroke-opacity:1"
         id="path72" />
      <path
         d="m 6307.9,5347.13 c 0,0 132.45,-102.96 287.41,-95.92 0,0 -133.83,-49.3 -309.93,-63.39"
         style="fill:none;stroke:#ffffff;stroke-width:11.9802;stroke-linecap:round;stroke-linejoin:round;stroke-miterlimit:10;stroke-dasharray:none;stroke-opacity:1"
         id="path74" />
      <path
         d="m 6904.67,5772.46 c 0,0 -161.43,52.42 -309.36,-5.49"
         style="fill:none;stroke:#ffffff;stroke-width:11.9802;stroke-linecap:round;stroke-linejoin:round;stroke-miterlimit:10;stroke-dasharray:none;stroke-opacity:1"
         id="path76" />
      <path
         d="m 6468.52,6236.29 c 0,0 112.81,77.32 183.2,63.85"
         style="fill:none;stroke:#ffffff;stroke-width:11.9802;stroke-linecap:round;stroke-linejoin:round;stroke-miterlimit:10;stroke-dasharray:none;stroke-opacity:1"
         id="path78" />
      <path
         d="m 6530.96,6426.95 c 0,0 -209.08,-5.69 -329.46,-227.95"
         style="fill:none;stroke:#ffffff;stroke-width:11.9802;stroke-linecap:round;stroke-linejoin:round;stroke-miterlimit:10;stroke-dasharray:none;stroke-opacity:1"
         id="path80" />
      <path
         d="m 6974.1,5124.42 c 0,0 -77.37,172.27 -252.73,163.62"
         style="fill:none;stroke:#ffffff;stroke-width:11.9802;stroke-linecap:round;stroke-linejoin:round;stroke-miterlimit:10;stroke-dasharray:none;stroke-opacity:1"
         id="path82" />
      <path
         d="m 6959.51,4853.92 c 0,0 -186.52,73 -152.09,206.97"
         style="fill:none;stroke:#ffffff;stroke-width:11.9802;stroke-linecap:round;stroke-linejoin:round;stroke-miterlimit:10;stroke-dasharray:none;stroke-opacity:1"
         id="path84" />
      <path
         d="m 6074.07,4729.97 c 0,0 7.04,-190.19 183.14,-345.16"
         style="fill:none;stroke:#ffffff;stroke-width:11.9802;stroke-linecap:round;stroke-linejoin:round;stroke-miterlimit:10;stroke-dasharray:none;stroke-opacity:1"
         id="path86" />
      <path
         d="m 6531.92,4807.45 c 0,0 21.13,-42.27 28.17,-133.84"
         style="fill:none;stroke:#ffffff;stroke-width:11.9802;stroke-linecap:round;stroke-linejoin:round;stroke-miterlimit:10;stroke-dasharray:none;stroke-opacity:1"
         id="path88" />
      <path
         d="m 5919.1,4258.02 c 0,0 -63.39,274.72 -105.66,324.02"
         style="fill:none;stroke:#ffffff;stroke-width:11.9802;stroke-linecap:round;stroke-linejoin:round;stroke-miterlimit:10;stroke-dasharray:none;stroke-opacity:1"
         id="path90" />
      <path
         d="m 5517.6,4631.35 c 0,0 133.83,-105.66 183.14,-373.33"
         style="fill:none;stroke:#ffffff;stroke-width:11.9802;stroke-linecap:round;stroke-linejoin:round;stroke-miterlimit:10;stroke-dasharray:none;stroke-opacity:1"
         id="path92" />
      <path
         d="m 5207.52,4831.81 c 0,0 91.72,-144.11 112.85,-249.77"
         style="fill:none;stroke:#ffffff;stroke-width:11.9802;stroke-linecap:round;stroke-linejoin:round;stroke-miterlimit:10;stroke-dasharray:none;stroke-opacity:1"
         id="path94" />
      <path
         d="m 5017.48,4631.35 c 0,0 -21.13,-176.1 28.18,-288.8"
         style="fill:none;stroke:#ffffff;stroke-width:11.9802;stroke-linecap:round;stroke-linejoin:round;stroke-miterlimit:10;stroke-dasharray:none;stroke-opacity:1"
         id="path96" />
      <path
         d="m 4841.39,4532.74 c 0,0 -42.27,-98.62 -35.22,-190.19"
         style="fill:none;stroke:#ffffff;stroke-width:11.9802;stroke-linecap:round;stroke-linejoin:round;stroke-miterlimit:10;stroke-dasharray:none;stroke-opacity:1"
         id="path98" />
      <path
         d="m 7319.93,1732.15 c 60.46,-69.71 112.81,-128.67 163.5,-189.02 30.94,-36.83 62.57,-74.23 116.46,-58.83 56.85,16.23 64.82,66.97 70.7,116.98 80.67,686.58 127.01,1375.41 108.12,2066.7 -13.31,487.07 -54.26,972.06 -156.89,1450.68 -86.32,402.54 -203.8,793.3 -396.43,1158.31 -124.52,235.95 -270.41,457.09 -483.37,625.34 -77.39,61.14 -83.06,59.79 -141.4,-17.47 -116.62,-154.42 -193.89,-328.87 -252.03,-511.49 -176.2,-553.5 -189.53,-1121.81 -141.27,-1693.78 45.75,-542.36 153.59,-1073.87 293.98,-1599.39 143.62,-537.6 321.12,-1063.78 521.1,-1582.71 16.45,-42.68 40.99,-74.65 89.84,-74.76 45.34,-0.1 70,29.97 88.41,68.19 37.3,77.43 76.1,154.15 119.28,241.25 z m 438.78,2820.24 c 73.75,-626.24 80.97,-1254.15 47.51,-1883.19 -19.27,-362.45 -52.03,-723.61 -94.52,-1084.05 -8.22,-69.7 -34.68,-123.52 -101.62,-143.73 -66.3,-20.02 -115.73,17.24 -156.45,67.26 -30.86,37.91 -63.3,74.54 -94.42,112.26 -20.92,25.35 -35.43,24.07 -49.59,-6.82 -22.33,-48.71 -47.19,-96.25 -70.59,-144.47 -26.28,-54.16 -66.12,-93.22 -128.7,-91.35 -64.83,1.94 -104.95,41.61 -128.08,101.72 -111.87,290.82 -218,583.67 -314.33,880.02 -103.57,318.65 -195.41,640.74 -276.01,965.89 -115.72,466.87 -195.41,940.6 -234.16,1419.62 -36.49,451.12 -26.32,902.23 70.09,1347.4 55.01,254.02 134.92,499.24 271.79,722.61 20.65,33.71 42.45,67.47 68.5,96.99 104.14,117.99 75.66,122.69 204.64,21.34 233.69,-183.61 389.82,-430.32 520.77,-692.58 207.67,-415.94 332.02,-858.33 408.57,-1315.49 20.8,-124.22 43.56,-248.04 56.6,-373.43"
         style="fill:#231f20;fill-opacity:1;fill-rule:nonzero;stroke:none"
         id="path100" />
      <path
         d="m 6762.23,6265.22 c 134.93,-1317.28 298.66,-2630.95 495.29,-3940.5 -86.81,1323.32 -251.71,2636.84 -495.29,3940.5 z m 897.28,-1717.44 c 74.57,-666.06 80.56,-1333.3 38.12,-2001.69 -19.62,-308.93 -51.52,-616.61 -83.5,-924.35 -0.96,-9.23 -4.66,-18.28 -4.82,-27.45 -0.39,-22.27 -4.23,-44.5 -27.51,-51.44 -21.45,-6.4 -31.99,14.22 -43.94,28.01 -59.51,68.69 -119.93,136.63 -178.07,206.47 -35.77,42.96 -60.2,52.93 -87.45,-9.13 -35.53,-80.94 -77.78,-158.99 -118.61,-237.52 -10.09,-19.41 -16.39,-49.03 -46.13,-45.33 -24.13,3 -27.7,29.02 -35.11,48.15 -142.93,368.66 -273.19,741.65 -389.62,1119.62 -119.33,387.37 -220.22,779.46 -297.42,1177.06 -74.26,382.43 -124.54,768.19 -137.48,1158.64 -13.63,411.42 8.82,818.58 113.61,1218.39 57.02,217.51 137.26,424.97 262.71,613.83 35.72,53.78 61.87,60.02 111.1,15.44 218.27,-197.65 371.85,-440.69 496.68,-703.23 160.83,-338.24 267.13,-694.36 338.71,-1061.57 33.91,-173.96 66.29,-348.04 88.73,-523.9"
         style="fill:#231f20;fill-opacity:1;fill-rule:nonzero;stroke:none"
         id="path102" />
      <g
         id="g104"
         transform="scale(10)">
        <text
           xml:space="preserve"
           transform="matrix(0.991632,0.129094,0.129094,-0.991632,711.502,518.999)"
           style="font-variant:normal;font-weight:600;font-size:42.5px;font-family:MyriadPro;-inkscape-font-specification:MyriadPro-Semibold;writing-mode:lr-tb;fill:#ffffff;fill-opacity:1;fill-rule:nonzero;stroke:none"
           id="text128"><tspan
             x="0"
             y="0"
             id="tspan106">A</tspan><tspan
             x="-0.63763779"
             y="42.500084"
             id="tspan108">G</tspan><tspan
             x="-0.00034799988"
             y="85.000168"
             id="tspan110">A</tspan><tspan
             x="-1.0003476"
             y="127.50035"
             id="tspan112">D</tspan><tspan
             x="7.904469"
             y="169.99963"
             id="tspan114">I</tspan><tspan
             x="1.4232515"
             y="212.49973"
             id="tspan116">R</tspan><tspan
             x="-68.216721"
             y="-5.5881982"
             id="tspan118">T</tspan><tspan
             x="-72.020988"
             y="36.911888"
             id="tspan120">O</tspan><tspan
             x="-71.213135"
             y="79.411972"
             id="tspan122">U</tspan><tspan
             x="-69.152374"
             y="121.91216"
             id="tspan124">R</tspan><tspan
             x="-68.090164"
             y="164.41084"
             id="tspan126">S</tspan></text>
      </g>
      <path
         d="m 1009.49,5168.07 c 0,0 84.52,-387.41 -274.717,-711.43"
         style="fill:none;stroke:#ffffff;stroke-width:11.9802;stroke-linecap:round;stroke-linejoin:round;stroke-miterlimit:10;stroke-dasharray:none;stroke-opacity:1"
         id="path130" />
      <path
         d="m 2275,4375 c 29.04,193.18 40.65,386.11 55.54,581.22 32.21,422.01 20.79,843.81 -71.25,1259.69 -52.52,237.3 -128.28,466.27 -257.22,674.57 -19.46,31.43 -39.98,62.91 -64.47,90.4 -56.19,63.08 -71.41,91.26 -96.86,85.95 4.02,10.82 6.97,17.18 6.97,17.18 54.89,-29.67 100.73,-58.09 138.88,-84.48 88.4,-61.13 159.07,-144.62 205.33,-241.64 31.94,-67 98.73,-173.08 233.39,-286.7 225.4,-190.18 324.02,-598.73 324.02,-598.73 70.44,-295.84 338.1,-471.94 605.77,-563.51 267.67,-91.57 338.11,-324.02 338.11,-436.72 0,-112.7 105.66,-324.02 140.88,-359.24 35.22,-35.22 0,-183.14 0,-126.79 0,56.35 -63.4,105.66 -63.4,105.66 0,-112.7 -91.57,-274.71 -91.57,-239.49 0,35.22 -70.44,324.02 -70.44,324.02 -7.04,-176.1 -225.4,-387.42 -225.4,-387.42 0,0 98.61,112.7 0,239.49 -98.62,126.79 -91.57,246.54 -91.57,246.54 -70.44,-21.13 -112.7,-246.54 -112.7,-246.54 -30.98,41.3 -54.33,176.89 -64.62,246.54 h -13.61 c -18.47,-76.11 -69.71,-227.93 -147.18,-288.8 -98.61,-77.48 -126.79,-288.8 -126.79,-288.8 -140.88,147.92 -28.18,577.6 -28.18,577.6 -14.08,-35.22 -28.17,-162.01 -84.52,-288.8 -56.35,-126.79 -133.84,-331.06 -133.84,-331.06 -118.2,203.31 -77.72,457.22 -38.33,602.31 C 2477.37,4517.18 2373.32,4429 2275,4375"
         style="fill:#040606;fill-opacity:1;fill-rule:nonzero;stroke:none"
         id="path132" />
      <path
         d="m 1465.27,5893.25 c 0,0 -514.2,-929.8 -190.18,-2317.44 0,0 200.75,-658.61 327.54,-806.53 126.79,-147.92 162.01,-401.5 162.01,-401.5 0,0 140.88,500.11 28.17,972.06 -112.7,471.94 -112.7,471.94 -112.7,471.94 0,0 -288.8,873.44 -218.36,1281.98"
         style="fill:none;stroke:#ffffff;stroke-width:11.9802;stroke-linecap:round;stroke-linejoin:round;stroke-miterlimit:10;stroke-dasharray:none;stroke-opacity:1"
         id="path134" />
      <path
         d="m 1130.69,5544.57 c 0,0 190.18,-767.78 -521.249,-1324.25"
         style="fill:none;stroke:#ffffff;stroke-width:11.9802;stroke-linecap:round;stroke-linejoin:round;stroke-miterlimit:10;stroke-dasharray:none;stroke-opacity:1"
         id="path136" />
      <path
         d="m 1032.07,5199.42 c 0,0 84.53,-387.41 -274.707,-711.43"
         style="fill:none;stroke:#ffffff;stroke-width:11.9802;stroke-linecap:round;stroke-linejoin:round;stroke-miterlimit:10;stroke-dasharray:none;stroke-opacity:1"
         id="path138" />
      <path
         d="m 1743.51,6481.41 c 0,0 -817.092,-542.38 -1112.936,-1401.73"
         style="fill:none;stroke:#ffffff;stroke-width:11.9802;stroke-linecap:round;stroke-linejoin:round;stroke-miterlimit:10;stroke-dasharray:none;stroke-opacity:1"
         id="path140" />
      <path
         d="m 1151.82,6164.44 c 0,0 -563.511,-366.29 -605.773,-873.45"
         style="fill:none;stroke:#ffffff;stroke-width:11.9802;stroke-linecap:round;stroke-linejoin:round;stroke-miterlimit:10;stroke-dasharray:none;stroke-opacity:1"
         id="path142" />
      <path
         d="m 1504.02,6629.33 c 0,0 126.79,119.75 331.06,35.22"
         style="fill:none;stroke:#ffffff;stroke-width:11.9802;stroke-linecap:round;stroke-linejoin:round;stroke-miterlimit:10;stroke-dasharray:none;stroke-opacity:1"
         id="path144" />
      <path
         d="m 3659.45,4706.35 c 0,0 -147.93,98.62 -105.66,246.54 42.26,147.92 -267.67,197.23 -584.65,422.63 -316.97,225.41 -394.45,478.99 -408.54,591.69 -14.09,112.7 -42.26,154.96 -105.66,197.23 -63.39,42.26 -154.96,253.58 -154.96,253.58 0,0 -98.62,253.58 -274.72,112.7 -176.09,-140.88 -612.82,-591.69 -436.72,-1824.37"
         style="fill:none;stroke:#ffffff;stroke-width:11.9802;stroke-linecap:round;stroke-linejoin:round;stroke-miterlimit:10;stroke-dasharray:none;stroke-opacity:1"
         id="path146" />
      <path
         d="m 2564.87,5939.81 c 0,0 -187.41,245.76 -455.08,140.1 0,0 68.65,-165.17 474.57,-216.42"
         style="fill:none;stroke:#ffffff;stroke-width:11.9802;stroke-linecap:round;stroke-linejoin:round;stroke-miterlimit:10;stroke-dasharray:none;stroke-opacity:1"
         id="path148" />
      <path
         d="m 2385.54,5903.77 c 0,0 -141.92,-35.18 -198.27,-70.4 0,0 31.74,-169.05 456.11,-105.65"
         style="fill:none;stroke:#ffffff;stroke-width:11.9802;stroke-linecap:round;stroke-linejoin:round;stroke-miterlimit:10;stroke-dasharray:none;stroke-opacity:1"
         id="path150" />
      <path
         d="m 2370.41,5713.63 c 0,0 -35.22,-7.05 -77.48,-70.44 0,0 98.62,-63.4 169.05,-70.44"
         style="fill:none;stroke:#ffffff;stroke-width:11.9802;stroke-linecap:round;stroke-linejoin:round;stroke-miterlimit:10;stroke-dasharray:none;stroke-opacity:1"
         id="path152" />
      <path
         d="m 2736.7,5593.88 c -274.72,35.22 -408.55,-105.66 -408.55,-105.66 0,0 154.97,-63.39 253.58,-70.44"
         style="fill:none;stroke:#ffffff;stroke-width:11.9802;stroke-linecap:round;stroke-linejoin:round;stroke-miterlimit:10;stroke-dasharray:none;stroke-opacity:1"
         id="path154" />
      <path
         d="m 2901.23,5427.11 c -398.97,30.46 -439.25,-72.72 -439.25,-72.72 0,0 232.45,-91.57 302.89,-84.53"
         style="fill:none;stroke:#ffffff;stroke-width:11.9802;stroke-linecap:round;stroke-linejoin:round;stroke-miterlimit:10;stroke-dasharray:none;stroke-opacity:1"
         id="path156" />
      <path
         d="m 3042.92,5325.93 c -299.55,-14.38 -397.79,-140.59 -397.79,-140.59 0,0 256.03,-79.18 557.69,48.46"
         style="fill:none;stroke:#ffffff;stroke-width:11.9802;stroke-linecap:round;stroke-linejoin:round;stroke-miterlimit:10;stroke-dasharray:none;stroke-opacity:1"
         id="path158" />
      <path
         d="m 2681.61,5176.57 c 0,0 -219.63,-132.11 -268.93,-294.12 0,0 323.26,33.67 563.13,288.02"
         style="fill:none;stroke:#ffffff;stroke-width:11.9802;stroke-linecap:round;stroke-linejoin:round;stroke-miterlimit:10;stroke-dasharray:none;stroke-opacity:1"
         id="path160" />
      <path
         d="m 3067.76,5065.59 c -253.58,56.35 -331.06,-140.88 -331.06,-140.88 0,0 56.35,-21.13 154.96,7.05"
         style="fill:none;stroke:#ffffff;stroke-width:11.9802;stroke-linecap:round;stroke-linejoin:round;stroke-miterlimit:10;stroke-dasharray:none;stroke-opacity:1"
         id="path162" />
      <path
         d="m 3345.75,5161.06 c 0,0 -214.6,-109.56 -256.86,-313.83 0,0 295.84,21.13 316.98,169.05"
         style="fill:none;stroke:#ffffff;stroke-width:11.9802;stroke-linecap:round;stroke-linejoin:round;stroke-miterlimit:10;stroke-dasharray:none;stroke-opacity:1"
         id="path164" />
      <path
         d="m 3347.42,4927.46 c 0,0 2.1,-122.49 16.18,-150.67 0,0 292.85,130.51 149.95,283.62"
         style="fill:none;stroke:#ffffff;stroke-width:11.9802;stroke-linecap:round;stroke-linejoin:round;stroke-miterlimit:10;stroke-dasharray:none;stroke-opacity:1"
         id="path166" />
      <path
         d="m 3227.7,5075.72 c -311.99,52.38 -406.48,-298.93 -406.48,-298.93 0,0 225.41,14.09 281.76,126.79"
         style="fill:none;stroke:#ffffff;stroke-width:11.9802;stroke-linecap:round;stroke-linejoin:round;stroke-miterlimit:10;stroke-dasharray:none;stroke-opacity:1"
         id="path168" />
      <path
         d="m 2519.46,5332.86 c 0,0 -149.05,-63 -191.31,-133.44 0,0 144.44,-54.19 315.23,-48.22"
         style="fill:none;stroke:#ffffff;stroke-width:11.9802;stroke-linecap:round;stroke-linejoin:round;stroke-miterlimit:10;stroke-dasharray:none;stroke-opacity:1"
         id="path170" />
      <path
         d="m 2226.01,6106.3 c 0,0 -179.61,191.97 -221.88,283.54 0,0 211.32,-21.13 288.8,-91.57 77.48,-70.44 169.05,-133.83 169.05,-133.83"
         style="fill:none;stroke:#ffffff;stroke-width:11.9802;stroke-linecap:round;stroke-linejoin:round;stroke-miterlimit:10;stroke-dasharray:none;stroke-opacity:1"
         id="path172" />
      <path
         d="m 2102.45,6248.07 c 0,0 -239.2,-20.24 -253.28,-41.37 0,0 162.01,-154.97 204.27,-183.14"
         style="fill:none;stroke:#ffffff;stroke-width:11.9802;stroke-linecap:round;stroke-linejoin:round;stroke-miterlimit:10;stroke-dasharray:none;stroke-opacity:1"
         id="path174" />
      <path
         d="m 2166.14,6013.08 c 0,0 -162.01,24.57 -218.36,3.43 0,0 112.7,-154.96 162.01,-169.05"
         style="fill:none;stroke:#ffffff;stroke-width:11.9802;stroke-linecap:round;stroke-linejoin:round;stroke-miterlimit:10;stroke-dasharray:none;stroke-opacity:1"
         id="path176" />
      <path
         d="m 2214.06,5847.46 c 0,0 -336.72,0 -364.89,-14.09 0,0 169.05,-218.36 316.97,-211.31"
         style="fill:none;stroke:#ffffff;stroke-width:11.9802;stroke-linecap:round;stroke-linejoin:round;stroke-miterlimit:10;stroke-dasharray:none;stroke-opacity:1"
         id="path178" />
      <path
         d="m 2347.07,5612.62 c -424.84,61 -603.56,-180.75 -603.56,-180.75 0,0 359.24,-28.17 443.76,-14.09 84.53,14.09 183.14,54.24 190.19,51.78"
         style="fill:none;stroke:#ffffff;stroke-width:11.9802;stroke-linecap:round;stroke-linejoin:round;stroke-miterlimit:10;stroke-dasharray:none;stroke-opacity:1"
         id="path180" />
      <path
         d="m 1926.49,5748.85 c 0,0 -320.57,-63.73 -353.91,-126.96 0,0 172.13,-112.54 312.41,-77.32"
         style="fill:none;stroke:#ffffff;stroke-width:11.9802;stroke-linecap:round;stroke-linejoin:round;stroke-miterlimit:10;stroke-dasharray:none;stroke-opacity:1"
         id="path182" />
      <path
         d="m 2402.62,5269.48 c 0,0 -264.65,91.95 -398.49,-337.72 0,0 408.55,113.46 443.77,229.3"
         style="fill:none;stroke:#ffffff;stroke-width:11.9802;stroke-linecap:round;stroke-linejoin:round;stroke-miterlimit:10;stroke-dasharray:none;stroke-opacity:1"
         id="path184" />
      <path
         d="m 1924.52,6135.81 c 0,0 -141.07,6.6 -203.3,0 0,0 -83.37,-189.3 339.26,-252.91"
         style="fill:none;stroke:#ffffff;stroke-width:11.9802;stroke-linecap:round;stroke-linejoin:round;stroke-miterlimit:10;stroke-dasharray:none;stroke-opacity:1"
         id="path186" />
      <path
         d="m 1887.51,5422.13 c 0,0 -242.62,-131.14 -242.62,-314.28 0,0 373.33,147.92 408.55,183.14"
         style="fill:none;stroke:#ffffff;stroke-width:11.9802;stroke-linecap:round;stroke-linejoin:round;stroke-miterlimit:10;stroke-dasharray:none;stroke-opacity:1"
         id="path188" />
      <path
         d="m 2214.06,5422.13 c 0,0 -132.45,-102.96 -287.41,-95.92 0,0 133.83,-49.3 309.93,-63.39"
         style="fill:none;stroke:#ffffff;stroke-width:11.9802;stroke-linecap:round;stroke-linejoin:round;stroke-miterlimit:10;stroke-dasharray:none;stroke-opacity:1"
         id="path190" />
      <path
         d="m 1617.3,5847.46 c 0,0 161.43,52.42 309.35,-5.49"
         style="fill:none;stroke:#ffffff;stroke-width:11.9802;stroke-linecap:round;stroke-linejoin:round;stroke-miterlimit:10;stroke-dasharray:none;stroke-opacity:1"
         id="path192" />
      <path
         d="m 2053.44,6311.29 c 0,0 -112.8,77.32 -183.19,63.85"
         style="fill:none;stroke:#ffffff;stroke-width:11.9802;stroke-linecap:round;stroke-linejoin:round;stroke-miterlimit:10;stroke-dasharray:none;stroke-opacity:1"
         id="path194" />
      <path
         d="m 1991.01,6501.95 c 0,0 209.07,-5.69 329.46,-227.95"
         style="fill:none;stroke:#ffffff;stroke-width:11.9802;stroke-linecap:round;stroke-linejoin:round;stroke-miterlimit:10;stroke-dasharray:none;stroke-opacity:1"
         id="path196" />
      <path
         d="m 1547.86,5199.42 c 0,0 77.38,172.27 252.74,163.62"
         style="fill:none;stroke:#ffffff;stroke-width:11.9802;stroke-linecap:round;stroke-linejoin:round;stroke-miterlimit:10;stroke-dasharray:none;stroke-opacity:1"
         id="path198" />
      <path
         d="m 1562.45,4928.92 c 0,0 186.53,73 152.09,206.97"
         style="fill:none;stroke:#ffffff;stroke-width:11.9802;stroke-linecap:round;stroke-linejoin:round;stroke-miterlimit:10;stroke-dasharray:none;stroke-opacity:1"
         id="path200" />
      <path
         d="m 2447.9,4804.97 c 0,0 -7.05,-190.19 -183.14,-345.16"
         style="fill:none;stroke:#ffffff;stroke-width:11.9802;stroke-linecap:round;stroke-linejoin:round;stroke-miterlimit:10;stroke-dasharray:none;stroke-opacity:1"
         id="path202" />
      <path
         d="m 1990.04,4882.45 c 0,0 -21.13,-42.27 -28.17,-133.84"
         style="fill:none;stroke:#ffffff;stroke-width:11.9802;stroke-linecap:round;stroke-linejoin:round;stroke-miterlimit:10;stroke-dasharray:none;stroke-opacity:1"
         id="path204" />
      <path
         d="m 2602.86,4333.02 c 0,0 63.4,274.72 105.66,324.02"
         style="fill:none;stroke:#ffffff;stroke-width:11.9802;stroke-linecap:round;stroke-linejoin:round;stroke-miterlimit:10;stroke-dasharray:none;stroke-opacity:1"
         id="path206" />
      <path
         d="m 3004.36,4706.35 c 0,0 -133.83,-105.66 -183.14,-373.33"
         style="fill:none;stroke:#ffffff;stroke-width:11.9802;stroke-linecap:round;stroke-linejoin:round;stroke-miterlimit:10;stroke-dasharray:none;stroke-opacity:1"
         id="path208" />
      <path
         d="m 3314.45,4906.81 c 0,0 -91.73,-144.11 -112.86,-249.77"
         style="fill:none;stroke:#ffffff;stroke-width:11.9802;stroke-linecap:round;stroke-linejoin:round;stroke-miterlimit:10;stroke-dasharray:none;stroke-opacity:1"
         id="path210" />
      <path
         d="m 3504.48,4706.35 c 0,0 21.13,-176.1 -28.17,-288.8"
         style="fill:none;stroke:#ffffff;stroke-width:11.9802;stroke-linecap:round;stroke-linejoin:round;stroke-miterlimit:10;stroke-dasharray:none;stroke-opacity:1"
         id="path212" />
      <path
         d="m 3680.58,4607.74 c 0,0 42.26,-98.62 35.22,-190.19"
         style="fill:none;stroke:#ffffff;stroke-width:11.9802;stroke-linecap:round;stroke-linejoin:round;stroke-miterlimit:10;stroke-dasharray:none;stroke-opacity:1"
         id="path214" />
      <path
         d="m 1321.31,1565.9 c 18.41,-38.22 43.07,-68.29 88.41,-68.19 48.85,0.11 73.4,32.08 89.85,74.76 199.97,518.93 377.48,1045.11 521.09,1582.71 140.39,525.52 248.23,1057.03 293.99,1599.39 48.25,571.97 34.93,1140.28 -141.28,1693.78 -58.13,182.62 -135.41,357.07 -252.03,511.49 -58.34,77.26 -64.01,78.61 -141.4,17.47 C 1566.99,6809.06 1421.09,6587.92 1296.57,6351.97 1103.94,5986.96 986.465,5596.2 900.145,5193.66 797.508,4715.04 756.563,4230.05 743.254,3742.98 c -18.895,-691.29 27.445,-1380.12 108.117,-2066.7 5.879,-50.01 13.856,-100.75 70.703,-116.98 53.887,-15.4 85.526,22 116.456,58.83 50.69,60.35 103.04,119.31 163.5,189.02 43.18,-87.1 81.98,-163.82 119.28,-241.25 z M 819.852,5000.82 c 76.554,457.16 200.898,899.55 408.578,1315.49 130.94,262.26 287.08,508.97 520.77,692.58 128.98,101.35 100.49,96.65 204.63,-21.34 26.05,-29.52 47.85,-63.28 68.51,-96.99 136.87,-223.37 216.77,-468.59 271.78,-722.61 96.41,-445.17 106.59,-896.28 70.09,-1347.4 -38.74,-479.02 -118.43,-952.75 -234.16,-1419.62 -80.59,-325.15 -172.44,-647.24 -276.01,-965.89 -96.33,-296.35 -202.45,-589.2 -314.33,-880.02 -23.13,-60.11 -63.25,-99.78 -128.08,-101.72 -62.58,-1.87 -102.41,37.19 -128.69,91.35 -23.4,48.22 -48.27,95.76 -70.6,144.47 -14.15,30.89 -28.67,32.17 -49.59,6.82 -31.11,-37.72 -63.55,-74.35 -94.42,-112.26 -40.72,-50.02 -90.146,-87.28 -156.447,-67.26 -66.938,20.21 -93.403,74.03 -101.617,143.73 -42.496,360.44 -75.25,721.6 -94.528,1084.05 -33.453,629.04 -26.23,1256.95 47.516,1883.19 13.043,125.39 35.801,249.21 56.598,373.43"
         style="fill:#231f20;fill-opacity:1;fill-rule:nonzero;stroke:none"
         id="path216" />
      <path
         d="m 1264.44,2399.72 c 196.64,1309.55 360.36,2623.22 495.29,3940.5 C 1516.15,5036.56 1351.25,3723.04 1264.44,2399.72 Z M 951.184,5146.68 c 71.586,367.21 177.876,723.33 338.706,1061.57 124.84,262.54 278.41,505.58 496.68,703.23 49.23,44.58 75.38,38.34 111.11,-15.44 125.44,-188.86 205.69,-396.32 262.7,-613.83 104.8,-399.81 127.24,-806.97 113.61,-1218.39 -12.94,-390.45 -63.22,-776.21 -137.47,-1158.64 -77.2,-397.6 -178.1,-789.69 -297.43,-1177.06 -116.43,-377.97 -246.69,-750.96 -389.61,-1119.62 -7.42,-19.13 -10.99,-45.15 -35.12,-48.15 -29.74,-3.7 -36.04,25.92 -46.13,45.33 -40.82,78.53 -83.08,156.58 -118.61,237.52 -27.24,62.06 -51.68,52.09 -87.44,9.13 -58.14,-69.84 -118.56,-137.78 -178.078,-206.47 -11.95,-13.79 -22.485,-34.41 -43.942,-28.01 -23.281,6.94 -27.117,29.17 -27.508,51.44 -0.156,9.17 -3.855,18.22 -4.812,27.45 -31.992,307.74 -63.887,615.42 -83.504,924.35 -42.441,668.39 -36.453,1335.63 38.117,2001.69 22.445,175.86 54.817,349.94 88.731,523.9"
         style="fill:#231f20;fill-opacity:1;fill-rule:nonzero;stroke:none"
         id="path218" />
      <path
         id="path220"
         style="fill:#040606;fill-opacity:1;fill-rule:nonzero;stroke:none"
         d="M 3927.3487 6959.3652 C 3905.8544 6958.7752 3884.2565 6956.963 3862.544 6953.7255 C 3744.494 6936.1155 3642.3747 6886.0519 3542.7247 6820.5419 C 3374.1747 6709.7319 3289.9573 6551.367 3264.6973 6359.497 C 3251.4473 6258.897 3260.364 6156.196 3277.544 6054.956 C 3304.924 5893.646 3354.1982 5739.0338 3417.7882 5589.0038 C 3430.9482 5557.9538 3413.7128 5589.3954 3466.5528 5495.6054 L 3575.713 5300.6054 C 3595.503 5261.1454 3626.9007 5205.8046 3649.3507 5169.3846 C 3690.5507 5102.5646 3724.0944 5031.9831 3762.1144 4963.8231 C 3828.2144 4845.3431 3892.7551 4725.8952 3949.5851 4602.6952 C 3985.0651 4525.7952 4028.1545 4453.1757 4065.2345 4377.2557 C 4131.7345 4241.0957 4205.4647 4108.4033 4272.9347 3972.5633 C 4281.5447 3955.2333 4290.053 3937.8649 4298.423 3920.4149 C 4335.973 3842.1849 4373.2796 3763.8545 4418.9796 3689.8045 L 4825.005 2975.0047 C 4825.005 2975.0047 5186.5152 2443.8849 4774.9952 2324.9949 C 4774.9952 2324.9949 4697.1362 2288.5181 4575.9962 2311.7381 C 4509.8262 2324.4281 4508.9752 2376.9398 4474.9952 2274.9998 C 4449.9952 2199.9998 4326.9301 2140.2149 4275.0001 2099.9949 C 4176.6001 2023.7849 4029.4352 2046.5298 4024.9952 1974.9998 C 4302.3852 1883.6398 4674.0378 1876.4652 4873.6378 1902.0652 C 5130.3578 1934.9952 5358.2785 2092.9444 5464.0285 2329.1844 C 5510.7085 2433.4744 5532.4166 2546.8469 5512.6466 2655.5369 C 5480.4866 2870.2869 5377.8856 3053.2448 5256.8556 3228.3348 C 5196.7056 3315.3548 5112.5343 3451.9574 5051.0743 3538.0174 L 5050.6788 3537.3875 L 4063.9747 5128.6327 C 4051.3047 5152.7427 4004.5144 5221.3583 3990.8644 5243.6083 C 3899.2144 5392.9683 3806.2862 5541.4371 3728.4962 5698.8671 C 3671.7462 5813.7371 3619.4907 5930.2631 3589.3507 6055.0731 C 3564.1007 6159.6731 3548.5063 6265.4974 3581.6163 6371.9774 C 3583.0363 6393.3374 3589.3356 6413.26 3599.3556 6432.08 C 3630.7556 6541.31 3702.2023 6618.8322 3798.0323 6674.0722 C 3866.0523 6713.2822 3938.9657 6738.7156 4019.7657 6715.8056 C 4050.0857 6711.3956 4079.1453 6702.826 4106.8653 6689.746 C 4169.1453 6669.466 4224.2743 6634.8578 4278.5743 6599.8778 C 4330.6143 6566.3578 4379.2914 6527.594 4430.3614 6490.454 C 4438.4914 6500.164 4440.1794 6511.6333 4441.0694 6523.1933 C 4442.8813 6546.8942 4443.3124 6570.6194 4443.9405 6594.3407 C 4268.4351 6759.6326 4036.993 6816.4735 4015.8399 6810.2148 L 4022.8272 6849.4433 C 4022.8272 6849.4433 4248.8361 6829.2263 4445.1564 6649.4775 C 4445.244 6675.2142 4445.2386 6700.9509 4445.0831 6726.704 C 4444.9231 6753.644 4434.0957 6772.2716 4413.5157 6787.0116 C 4336.3657 6842.2616 4255.8049 6891.3459 4165.6349 6922.8759 C 4150.9549 6930.6659 4135.1131 6934.69 4118.8331 6937.29 C 4055.4356 6951.9225 3991.8319 6961.1352 3927.3487 6959.3652 z M 3892.7052 6857.2948 L 3892.7052 6815.0341 C 3695.4752 6793.9041 3561.6299 6638.9375 3554.5899 6617.8075 L 3526.4063 6645.9911 C 3526.4063 6645.9911 3632.0752 6829.1248 3892.7052 6857.2948 z M 3463.0225 6540.3319 L 3498.296 6516.7919 C 3390.856 6352.7419 3461.8661 6135.6059 3453.7061 6124.1259 L 3397.0753 6119.7753 C 3397.0753 6119.7753 3355.3725 6367.7619 3463.0225 6540.3319 z M 3483.6329 5988.1884 C 3508.2329 5831.1884 3649.9152 5630.9105 3648.9552 5616.8505 L 3590.3468 5585.5468 C 3590.3468 5585.5468 3457.6113 5813.465 3433.4913 5977.495 L 3483.6329 5988.1884 z M 3709.5558 5497.8319 L 3899.7364 5152.6854 L 3836.338 5110.4247 L 3653.2032 5469.663 L 3709.5558 5497.8319 z M 3963.1349 5039.9803 L 4167.4073 4701.8651 L 4089.9171 4652.5585 L 3892.7052 5004.7655 L 3963.1349 5039.9803 z M 4237.8517 4582.1288 L 4442.1241 4244.0135 L 4364.6339 4194.7069 L 4153.3155 4539.8534 L 4237.8517 4582.1288 z M 4526.6456 4096.0936 L 4730.9181 3757.993 L 4653.4425 3708.6864 L 4442.1241 4053.8329 L 4526.6456 4096.0936 z M 4822.4855 3595.9813 L 5104.2335 3138.1297 L 4949.2824 3208.574 L 4737.964 3553.7205 L 4822.4855 3595.9813 z M 5183.7745 2960.4149 C 5183.7745 2960.4149 5373.533 2654.8336 5311.963 2474.4236 L 5212.8663 2492.6609 C 5254.1863 2616.4409 5096.2355 2924.7899 5096.2355 2924.7899 L 5183.7745 2960.4149 z M 5128.3156 2333.2127 L 5212.5441 2289.0916 C 5212.5441 2289.0916 4946.3701 1989.4547 4575.0001 2075.0047 L 4641.3868 2161.4451 C 4874.0068 2074.5951 5128.3156 2333.2127 5128.3156 2333.2127 z " />
      <path
         d="m 4698.08,6394.59 c 49.5,-72.69 111.59,-131.32 187.99,-175.33 12.03,-6.94 29.88,-9.27 35.73,-31.9 -160.25,19.27 -260.2,127.29 -362.77,232.08 12.52,-27.67 26.32,-53.51 41.94,-78.2 56.82,-89.86 126.26,-164.49 230.73,-200.92 47.31,-16.5 92.38,-39.87 137.44,-62.19 18.22,-9.02 37.96,-19.03 49.08,-44.86 -35.29,14.69 -67.54,22.74 -100.3,23.33 -77.1,1.38 -144.79,23.24 -198.26,81.27 -1.06,1.15 -4.43,0.17 -8.55,0.19 23.94,-49.21 56.89,-89.25 103.84,-116.13 61.28,-35.08 129.64,-46.72 198.39,-55.27 68.78,-8.56 83.15,-12.33 116.88,-38.56 -63.6,-16.95 -123.45,-5 -183.13,13.22 49.69,-35.41 105.49,-57.01 165.05,-61.89 135.51,-11.1 232.78,-82.73 311.5,-186.73 15.03,-19.85 25.88,-42.04 30.44,-66.63 6.27,-33.87 -8.31,-52.59 -42.41,-52.75 -14.12,-0.06 -27.29,0.64 -41.41,-10.81 28.54,-6.87 50.33,-20.63 70.02,-39.26 9.41,-8.9 22.26,-14.01 38.05,-7.31 59.16,25.1 75.34,123.26 23.53,160.04 -117.21,83.24 -164.65,205.53 -194.65,338.27 -4.26,18.86 -0.56,36.95 9.19,54.12 17.22,30.3 14.82,61.64 -2.29,90.25 -35.03,58.56 -61.65,121.12 -91.06,182.38 -78.57,163.68 -123.2,333.19 -91.02,516.34 2.37,13.46 9.48,30.27 -10.3,35.15 -20.46,5.04 -19.95,-14.46 -24.73,-26.7 -19.55,-50.08 -36.9,-100.9 -47.37,-161.87 -95.39,156.48 -167.98,310.43 -180.26,487.76 -6.61,95.4 -19.55,190.4 -31.05,285.41 -2.96,24.47 -3.39,50.62 -24.27,79.72 -64.29,-414.18 15.13,-794.87 202.69,-1157.86 -55.65,55.43 -108.54,111.65 -171.21,155.23 -119.52,83.13 -180.58,198.84 -203.89,338.62 -1.87,11.22 -5.09,22.22 -7.69,33.31 -14.16,-129.47 -0.87,-253.08 72.18,-363.89 57.33,-86.98 133.83,-155.42 214.56,-219.85 15.27,-12.19 45.09,-27.14 32.33,-46.88 -14.08,-21.78 -40.64,-1.85 -59.31,7.97 -60.94,32.09 -109.26,78.95 -151.71,132.68 -44.81,56.73 -97.76,103.51 -166.95,128.97 -9.8,11.78 -23,13.54 -37.91,11.57 5.13,-3.91 10.27,-7.82 15.4,-11.72 56.57,-49.91 103.28,-108.3 145.54,-170.37"
         style="fill:#040606;fill-opacity:1;fill-rule:nonzero;stroke:none"
         id="path222" />
      <path
         d="m 3228.94,6184.68 c -21.74,207.24 37.59,399.09 177.73,552.88 80.28,88.1 147.82,121.88 251.72,173.53 77.9,38.72 162.81,61.77 249.64,67.09 64.34,3.94 116.15,0.56 172.77,-8.67 25.83,-2.96 50.33,-10.43 73.64,-21.86 65.44,-15.05 121.23,-54.01 189.97,-79.98 -22.85,42.28 -42.75,77.71 -61.34,113.8 -32.69,63.43 -79.88,110.49 -148.03,134.76 -11.25,11.43 -24.51,15.89 -40.28,11.58 -22.67,4.01 -45.1,10.86 -75.02,6.61 40.48,-27.63 70.94,-58.37 98.77,-91.32 6.99,-8.28 22.87,-20.28 12.81,-32.7 -6.17,-7.62 -21.59,-8.12 -34.73,-6 -36.84,5.96 -65.47,27.67 -94.87,47.5 -68.85,46.43 -144.83,48.97 -229.04,42.41 19.77,-13.89 36.85,-21.59 47.15,-34.64 6.67,-8.45 24.51,-14.39 17.81,-29.6 -5.73,-13.01 -19.03,-16.11 -33.05,-19.15 -35.44,-7.69 -70.42,-7.46 -104.8,2.53 -80.36,23.35 -153.61,1.89 -225.08,-33.19 -0.25,-4.94 0.89,-7.98 2.75,-10.03 -2.31,1.44 -3.68,4.15 -2.75,10.03 -3.12,-2.67 -6.24,-5.34 -9.36,-8.01 8.22,-9.29 18.15,-10.95 29.43,-6.6 6.88,-1.29 13.79,-2.48 20.65,-3.9 23.41,-4.86 43.15,-18.43 45.48,-41.39 2.08,-20.47 -20.24,-28.89 -36.81,-36.57 -9.99,-4.64 -20.01,-9.64 -30.47,-13.64 -49.73,-19.04 -103.9,-13.91 -153.9,-32.61 -43.67,-16.33 -82.89,-50.27 -86.47,-86.98 5.81,0.79 11.57,1.08 17.08,2.41 17.91,4.32 36.17,3.16 45.06,-13.72 8.63,-16.37 1.59,-33.44 -10.2,-47.92 -16.87,-20.73 -38.24,-35.4 -60.09,-50.49 -24.79,-17.13 -56.43,-17.67 -79.43,-39.26 -38.73,-36.37 -64.94,-79.94 -83.85,-128.73 -12.94,-8.36 -11.66,-22.98 -15.59,-35.31 v -0.01 c 4.04,-5.69 -6.85,-12.79 2.84,-19.14 16.26,15.96 30.34,34.52 51.66,45.07 24.69,12.22 37.66,3.69 45.4,-20.84 11.45,-36.26 -4.18,-79.34 -42.95,-98.02 -104.94,-50.57 -120.33,-145.05 -128.14,-244.74 11.79,-0.97 13.68,5.95 17.32,12.2 15.4,26.43 35.8,48.02 64.31,60.54 37.82,16.63 66.84,-1.98 74.2,-42.17 5.89,-32.21 -13.71,-52.12 -29.05,-73.11 -46.64,-63.81 -58.12,-134.58 -48.06,-210.77 1.59,-11.13 7.6,-11.52 11.82,-2.8 4.94,10.2 6.76,21.91 9.93,32.97 h -0.01 c 0.01,0 0.01,0 0.01,0 9.37,26.2 21.8,50.16 54.9,47.45 30.09,-2.48 52.5,-33.27 58.96,-65.82 8.79,-44.26 -25.17,-69.13 -40.17,-102.57 -13.28,-13.03 -17.58,-28.82 -14.37,-46.91 -9.77,-43.38 -1.12,-83.83 18.61,-129.22 11.52,24.31 18.48,44 29.55,61.01 12.37,19.02 26.17,40.12 53.62,37.5 22.16,-2.11 33.93,-19.3 40.71,-37.91 6.2,-17.03 0.16,-34.02 -8.86,-49.61 -19.69,-33.97 -35.83,-69.42 -44.61,-107.96 -7.26,-31.88 6.03,-67.09 32.78,-83.46 10.36,33.42 17.67,68.08 63.37,72.08 36.29,3.18 61.99,-25.64 102.1,-28.72 -41.7,79.05 -67.4,138.76 -98.84,217.26 -62.86,156.99 -96.56,355.48 -114.33,524.84"
         style="fill:#040606;fill-opacity:1;fill-rule:nonzero;stroke:none"
         id="path224" />
      <path
         d="m 5039.55,5547.95 c -64.56,25.78 -120.75,1.82 -177.85,-23.77 47.73,-3.26 96.74,-4.69 137.63,-28.77 65.34,-38.5 126.37,-31.44 190.39,0.6 40.39,20.22 82.95,36.07 129.93,30.59 4.11,1.14 10.23,1.02 11.9,3.69 3.13,4.99 -2.01,7.28 -6.37,8.47 -7.57,2.08 -15.18,3.99 -22.77,5.97 0.01,0 0.01,0 0.01,0 -0.01,0 -0.01,0 -0.02,0 -73.58,9.04 -20.62,84.14 -58.66,113.34 -9.6,7.36 -7.22,26.33 1.15,39.44 1.89,2.96 3.79,5.92 5.68,8.88 5.52,8.72 2.45,14.17 -5.39,20.22 -43.42,33.49 -92.59,48.83 -151.55,52.48 55.09,-48.73 69.29,-70.62 72.32,-108.59 3.64,-45.54 -9.49,-62.64 -54.78,-67.41 -21.97,-2.32 -44.36,-2.34 -66.46,-1.25 -20.83,1.02 -41.53,4.86 -68.84,8.28 57.26,-45.91 118.74,-55.62 182.44,-59.51 -39.63,-14.71 -79.94,-18.17 -118.76,-2.66"
         style="fill:#040606;fill-opacity:1;fill-rule:nonzero;stroke:none"
         id="path226" />
      <path
         d="m 3820.39,7782.56 c 9.53,-2.74 13,-16.43 25.37,-14.03 v 0 0 c 4.08,-16.54 21.62,-15.98 32.27,-23.33 66.02,-45.57 128.22,-95.71 189.55,-147.3 132.08,-111.09 246.64,-236.78 321.33,-393.78 25.07,-52.71 39.64,-109.94 46.95,-169.53 8.82,-71.95 13.9,-144.05 20.66,-216.09 8.36,-89.05 6.32,-178.11 3.49,-267.17 -1.73,-54.38 -9.64,-108.72 -8.78,-162.99 1.65,-105.03 16.46,-208.11 51.27,-308.32 39.45,-113.56 99.64,-206.32 220.69,-245.51 8.73,-11.28 51.81,-9.51 33.4,-10.18 27.18,-4.75 54.03,-10.07 81.89,-11.97 62.55,-4.26 124.82,-0.26 186.99,2.92 122.08,6.25 222.15,-35.21 300.02,-129.64 20.83,-25.26 41.18,-50.93 62.38,-75.88 9.88,-11.64 21.79,-24.94 38.52,-14.51 16.45,10.26 12.21,27.02 4.1,40.63 -49.5,83.03 -110.4,154.13 -204.12,189.64 -106.56,40.38 -217.04,43.26 -328.76,34.12 -129.78,-10.61 -230.43,38.64 -299.68,148.81 -73.37,116.73 -98.75,247.16 -97.69,382.38 0.9,115.58 11.93,231.06 14,346.66 5.76,322.14 -89.38,603.75 -337.46,822.2 -97.75,86.06 -204.43,158.41 -323.35,212.15 -6.19,14.39 -20.35,12.93 -32.15,16.16 -3.08,11.11 -10.33,13.99 -20.98,10.75 4.33,-8.64 8.78,-16.69 20.09,-16.19"
         style="fill:#040606;fill-opacity:1;fill-rule:nonzero;stroke:none"
         id="path228" />
      <path
         d="m 5404.58,3086 c 11.91,6.09 23.63,9.52 31.95,16.81 26,22.76 41.17,19.16 59.6,-11.92 72.27,-121.92 134.27,-247.44 160.89,-388.24 3.01,-15.91 -1.04,-16.37 -13.22,-18.99 -18.58,-4 -37.1,0.11 -55.93,-2.88 -18.4,-2.93 -19.37,18.71 -21.54,30.55 -9.73,53.21 -28.64,103.19 -48.21,153.22 -28.36,72.49 -66.32,140.12 -103.27,208.28 -2.27,4.2 -5.91,7.65 -10.27,13.17"
         style="fill:#060707;fill-opacity:1;fill-rule:nonzero;stroke:none"
         id="path252" />
      <path
         d="m 5659.74,2481.63 c -10.1,-79.13 -33.13,-153.89 -71.42,-224.31 -11.79,-21.68 -22.05,-21.33 -37.71,-7.34 -14.28,12.77 -42.63,15.77 -44.64,32.46 -1.96,16.2 15.92,34.33 23.62,52.24 35.36,82.25 56.25,166.79 39.22,257.16 -1.45,7.67 0.13,15.92 0.3,23.9 30.3,5.23 60.53,8.53 90.27,-2.95 0.52,-11.27 1.04,-22.53 1.56,-33.79 4.08,-12.81 -1.55,-26.52 3.62,-39.23 -3.1,-8.3 -3.05,-16.67 -0.47,-25.08 -4.71,-10.59 -0.7,-22.33 -4.35,-33.06"
         style="fill:#060707;fill-opacity:1;fill-rule:nonzero;stroke:none"
         id="path254" />
      <path
         d="m 5522.89,2173.78 c -37.17,-87.74 -97.45,-155.06 -171.84,-210.98 -5.59,-4.2 -11.7,-7.69 -17.36,-11.8 -39.88,-28.94 -40.06,-29.09 -65.46,13.01 -9.21,15.26 -12.3,26.67 7.65,40.6 65.53,45.78 121.56,101.34 155.56,175.46 9.63,20.99 21.51,27.03 42.68,15.07 14.84,-8.39 31.34,-13.86 48.77,-21.36"
         style="fill:#060707;fill-opacity:1;fill-rule:nonzero;stroke:none"
         id="path256" />
      <path
         d="m 5427.6,3179.23 c -2.35,-2.25 -3.67,-3.76 -5.23,-4.97 -50.1,-38.89 -54.65,-36.16 -84.87,18.64 -32.13,58.25 -75.99,108.81 -116.04,161.8 -16.32,21.6 -34.81,41.37 -46.84,66.69 -6.57,13.82 -10.74,18.12 6.15,24.77 14.45,5.69 26.87,22.5 40.5,22.86 16.74,0.43 15.35,-23.51 24.63,-35.45 54.71,-70.41 108.22,-141.77 156.9,-216.58 8.25,-12.68 16.6,-25.29 24.8,-37.76"
         style="fill:#060707;fill-opacity:1;fill-rule:nonzero;stroke:none"
         id="path258" />
      <path
         d="m 4950.85,3210.99 63.3,-105.5 89.67,31.65"
         style="fill:#ffffff;fill-opacity:1;fill-rule:nonzero;stroke:none"
         id="path260" />
      <g
         id="g262">
        <g
           id="g264"
           clip-path="url(#clipPath268)">
          <path
             d="m 2634.67,2719.25 c -64.73,162.18 -97.34,303.07 -97.11,436.42 -178.97,-101.48 -116.2,-323.68 97.11,-436.42"
             style="fill:#040606;fill-opacity:1;fill-rule:nonzero;stroke:none"
             id="path270" />
          <path
             d="m 2608.09,1880.05 c -23.56,-10.39 -39.1,-30.67 -33.86,-67.15 6.64,-45.94 74.3,-89.64 114.05,-103.83 73.35,-26.14 159.57,-18.46 231.26,9.09 86.12,33.04 187.78,101.52 241.94,176.58 -32.67,-45.27 -176.82,-44.78 -225.62,-42.06 -75.12,4.23 -154.52,19.24 -228.8,32.69 -29.7,5.34 -70.28,7.36 -98.97,-5.32"
             style="fill:#040606;fill-opacity:1;fill-rule:nonzero;stroke:none"
             id="path272" />
          <path
             d="m 3037.25,2860.11 c -37.44,189.63 -13.88,461.42 169.8,575.24 74.54,46.22 156.26,31.28 138.3,-61.44 94.26,60.04 170.23,121.1 290.73,137.16 193.62,25.8 390.92,-59.09 509.71,-212.65 95.62,-123.66 128.21,-274.76 96.66,-425.71 -29.07,-139.32 78.69,-52.75 147.22,-21.32 -19.48,-22.58 -42.2,-43.91 -68.34,-63.53 -34.16,-25.66 -167.78,-113.76 -205.42,-48.38 -11.94,20.81 11.29,40.77 17.75,64.49 15.36,57.46 22.43,103.53 9.78,163.48 -44.31,209.11 -303.53,369.38 -516.14,341.49 -216.04,-28.34 -351.72,-264.57 -328.93,-465.05 23.56,-207.27 233.55,-390.55 430.33,-425.26 97.52,-17.17 186.19,-17.72 272.32,-4.57 -25.77,-12.54 -51.92,-24.68 -78.53,-36.65 -162.48,-73.11 -299.87,-90.52 -467.62,-21.11 -222.65,92.17 -370.59,265.23 -417.62,503.81"
             style="fill:#040606;fill-opacity:1;fill-rule:nonzero;stroke:none"
             id="path274" />
          <path
             d="m 3099.81,3877.56 c -18.29,-89.11 -639.24,-446.71 -226.08,-1365.41 0,0 -444.21,608.24 -141.14,1187.17 197.53,377.34 385.54,267.36 367.22,178.24"
             style="fill:#040606;fill-opacity:1;fill-rule:nonzero;stroke:none"
             id="path276" />
          <path
             d="m 3830.15,2251.28 c 0,0 -582.02,-290.95 -886.07,-18.22 -151.76,136.19 -47.71,189.25 -47.71,189.25 0,0 -219.7,192.22 -286.09,107.71 -82.61,-105.11 385.59,-864.19 1219.87,-278.74"
             style="fill:#040606;fill-opacity:1;fill-rule:nonzero;stroke:none"
             id="path278" />
          <path
             d="m 3302.91,4165.66 c 44.61,69.85 -40.99,91.23 -93.51,69.56 -71,-29.26 -86.48,-113.31 -56.1,-179.01 40.43,15.97 125.53,71.81 149.61,109.45"
             style="fill:#040606;fill-opacity:1;fill-rule:nonzero;stroke:none"
             id="path280" />
          <path
             d="m 3078.84,1924.01 c -2.35,-3.23 -80.22,40.67 -210.92,130.49 -125.85,86.46 -122.71,-110.93 25.65,-146.83 37.99,-9.16 101.18,-17.76 185.27,16.34"
             style="fill:#040606;fill-opacity:1;fill-rule:nonzero;stroke:none"
             id="path282" />
          <path
             d="m 2627.79,1753.19 c 69.66,-28.35 159.26,-24.82 224.02,14.33 29.99,18.11 59.47,40.22 78.86,69.95 3.21,4.9 5.94,9.96 8.19,15.05 51.43,-2.55 190.57,-2.19 222.62,42.22 -54.16,-75.06 -155.82,-143.54 -241.94,-176.58 -71.69,-27.55 -157.91,-35.23 -231.26,-9.09 -25.49,9.12 -62.53,30.41 -87.55,56.67 8.69,-4.56 17.73,-8.78 27.06,-12.55"
             style="fill:#040606;fill-opacity:1;fill-rule:nonzero;stroke:none"
             id="path284" />
          <path
             d="m 2879.99,1954.27 c 34.37,-2.59 66.65,10.39 89.05,32.84 68.86,-44.18 108.13,-65.38 109.8,-63.1 -84.09,-34.1 -147.28,-25.5 -185.27,-16.34 -47.47,11.49 -80.06,39.5 -98.33,69.43 26.67,-12.68 56.37,-20.71 84.75,-22.83"
             style="fill:#040606;fill-opacity:1;fill-rule:nonzero;stroke:none"
             id="path286" />
          <path
             d="m 5000,2300 c 0,0 -41.41,69.63 -246.85,-13.83 -205.4,-83.43 -354.27,-348.23 -354.27,-348.23 0,0 258.36,415.54 601.12,362.06"
             style="fill:#040606;fill-opacity:1;fill-rule:nonzero;stroke:none"
             id="path288" />
          <path
             d="m 5346.63,2366.22 c 0,0 -254.75,179.85 -235.65,384.64 19.21,204.8 -304.73,-156.56 235.65,-384.64"
             style="fill:#040606;fill-opacity:1;fill-rule:nonzero;stroke:none"
             id="path290" />
          <path
             d="m 3149.02,3191.28 c 20.8,42.02 45.63,90.45 92.22,106.44 37.92,13.01 84.9,6.3 79.68,-43.79 52.9,24.6 97,79.48 151.05,108.78 76.25,41.34 147.52,68.37 234.53,71.06 186.26,5.67 333.79,-90.48 365.64,-274.98 -120.71,172.44 -359.48,232.4 -550.25,149.08 -345.64,-150.98 -263.06,-504.31 -98.55,-756.2 -158.6,36.45 -278.93,220.83 -307.74,370.65 -16.33,84.91 -4.93,191.41 33.42,268.96"
             style="fill:#040606;fill-opacity:1;fill-rule:nonzero;stroke:none"
             id="path292" />
          <path
             d="m 2887.44,2806.43 c 62.18,-142.62 191.75,-353.27 353.18,-399.9 -150.23,113.51 -273.48,337.22 -287.5,523.78 -8.03,106.5 27.61,242.79 -8.39,345.3 -15.86,45.29 -56.65,54.02 -82.85,15.82 -19.55,-28.49 -27.47,-111.48 -29.13,-146.32 -5.47,-116.32 8.19,-231.98 54.69,-338.68"
             style="fill:#040606;fill-opacity:1;fill-rule:nonzero;stroke:none"
             id="path294" />
          <path
             d="m 4144.69,1739.35 c 94.67,61.33 230.04,178.92 244.32,299.91 -63.44,-120.88 -208.9,-235.49 -340.7,-267.57 -75.24,-18.34 -176.94,-8.95 -246.02,-46.82 -30.52,-16.7 -31.94,-46.91 -1.51,-61.14 22.68,-10.61 82.98,-6.47 108.1,-3.54 83.86,9.84 164.98,33.28 235.81,79.16"
             style="fill:#040606;fill-opacity:1;fill-rule:nonzero;stroke:none"
             id="path296" />
          <path
             d="m 2789.03,2854.89 c -17.15,84.54 -26.93,170.56 -25.8,256.23 1.89,141.1 45.11,334.42 150.52,436.54 52.76,51.11 130.49,64.05 165.97,-9.63 87.06,150.48 241.2,272.15 394.42,348.23 76.66,38.08 183.45,57.11 268.3,49.26 132.56,-12.33 138.3,-117.36 53.24,-202.13 126.06,35.75 295.12,-31.68 398.97,-98.61 225.69,-145.42 369.6,-471.77 245.9,-708.76 15.86,86.51 14.06,175.87 -9.68,262.26 -35.58,129.64 -116.78,244.16 -228.56,319.04 -42.52,28.5 -90.13,49.74 -137.72,68.13 -45.02,17.42 -91.84,30.46 -139.26,39.55 -120.85,23.04 -260.72,26.89 -381.78,-11.66 38.95,45 44.03,110.2 -31.53,134.85 -70.77,23.11 -170.17,-49.88 -220.42,-91.75 -65.93,-54.97 -129.44,-114.46 -181.56,-182.96 -36.59,-47.99 -97.16,-108.75 -97.47,-173.26 -0.93,32.26 5.94,100.4 -32.6,119.53 -146.57,72.73 -167.89,-182.45 -172.7,-268.76 -0.61,-9.97 -0.98,-19.91 -1.31,-29.83 -4.84,-180.25 38.16,-357.59 142.04,-508.62 28.35,-41.1 61.01,-79.19 98.24,-112.45 34.16,-30.53 71.76,-57.15 111.73,-79.45 26.34,-14.69 82.45,-52.33 113.37,-49.53 -38.7,-3.48 -139.49,23.86 -153.77,-29.47 -12.17,-45.16 51.68,-68.15 82.13,-77.3 88.89,-26.65 195.06,-32.9 287.6,-26.16 43.04,3.1 87.25,9.84 129.56,18.05 87.15,16.89 191.59,31.23 272.42,69.88 -39.9,-19.09 -80.67,-36.68 -123.21,-51.03 -204.04,-68.87 -417.21,-98.51 -628.88,-53.23 -58.29,12.45 -115.89,18.53 -158.87,62.54 -44.32,45.37 -67.16,107.43 -4.48,138.97 -51.71,94.21 -111.64,177.84 -144.01,283 -15.98,51.96 -29.91,104.94 -40.8,158.53"
             style="fill:#040606;fill-opacity:1;fill-rule:nonzero;stroke:none"
             id="path298" />
          <path
             d="m 4030.44,3845.5 c 35.32,-1.61 65.47,60.94 68.71,88.39 4.89,41.54 -14.43,73.76 -43.7,101.16 -63.37,59.18 -159.61,83.03 -243.44,92.72 -73.76,8.49 -147.46,-0.17 -218.92,-18.05 30.32,7.57 79.87,-5.11 111.17,-8.69 36.15,-4.08 73.5,-13.38 106.74,-28.04 68.22,-29.99 113.79,-85.65 118.72,-161.47 2.89,-44.48 -23.77,-86.19 -30.95,-124.9"
             style="fill:#040606;fill-opacity:1;fill-rule:nonzero;stroke:none"
             id="path300" />
          <path
             d="m 4475,2425 c -42.44,9.69 18.53,-0.31 -25,0 -75.82,0.57 195.17,-13.53 123.66,-40.12 -40.89,-15.26 -80.28,-32.72 -117.41,-55.54 -38.13,-23.38 -73.99,-50.69 -108.92,-78.61 -59.63,-47.78 -115.94,-99.66 -174.52,-148.78 -58.24,-48.81 -116.45,-97.67 -176.82,-143.83 -78.63,-58.28 -161.59,-111.23 -251.92,-149.37 -50.76,-19.08 -103.14,-32.91 -156.85,-40.4 -50.7,-4.49 -101.55,-3.17 -151.97,3.49 -53.61,9.55 -106.69,25.09 -157.1,45.73 -24.78,11.48 -48.78,24.46 -71.71,39.1 180.33,-71.53 390.95,-3.85 562.35,65.35 123.09,49.72 225.46,128.22 323.87,211.38 134.87,114.07 235.17,222.12 398.48,292.03 146.74,62.86 -170.86,124.19 -41.14,24.57 -11.7,4.46 37.45,-27.86 25,-25"
             style="fill:#040606;fill-opacity:1;fill-rule:nonzero;stroke:none"
             id="path302" />
          <path
             d="m 4937.79,2285.15 c -36.49,-3.62 -72.6,-8.33 -108.03,-17.76 -35.96,-9.59 -70.8,-23.27 -104.9,-38.07 -60.63,-26.35 -114.68,-63.04 -166.83,-103.18 -25.22,-19.36 -49.39,-40.22 -72.51,-62.12 63.41,80.33 157.38,177.36 267.63,222.15 205.44,83.46 246.85,38.83 246.85,38.83 -7.41,1.17 7.44,-25.77 0,-25 -57.85,13.16 -3.59,-9.08 -62.21,-14.85"
             style="fill:#040606;fill-opacity:1;fill-rule:nonzero;stroke:none"
             id="path304" />
          <path
             d="m 2968.31,3893.61 c -27.94,-12.52 -52.13,-33.29 -75.94,-51.91 -16.56,-12.93 -32.35,-26.71 -47.15,-41.51 -93.86,-93.84 -156.42,-214.5 -198.55,-340.59 16.46,79.34 44.08,159.79 85.92,239.72 172.16,328.86 337.12,287.57 364.44,212.52 -45.85,9.21 -86.39,0.76 -128.72,-18.23"
             style="fill:#040606;fill-opacity:1;fill-rule:nonzero;stroke:none"
             id="path306" />
          <path
             d="m 4097.67,3923.57 c 0,0 -11.8,-71.48 -101.99,-119.82 -7.4,-3.96 -81.84,-24.22 -90.19,-24.31 28.21,31.9 112.7,94.21 111.81,138.64 -2.88,142.07 -167.53,183.81 -280.65,201.7 -16.33,2.59 -32.74,5.05 -49.22,7.37 41.22,4.73 82.88,5.41 124.58,0.62 83.82,-9.65 180.07,-33.54 243.44,-92.72 29.27,-27.4 48.59,-59.62 43.7,-101.16"
             style="fill:#040606;fill-opacity:1;fill-rule:nonzero;stroke:none"
             id="path308" />
          <path
             d="m 3761.52,3584.89 c 90.03,4.32 200.17,-33.86 269.33,-55.53 145.52,-45.62 275.38,-157.35 303.7,-312.67 6.93,-37.86 15.61,-124.12 -23.49,-148.87 -49.52,41.94 -64.38,145.94 -100.47,202.6 -36.33,57.12 -84.81,115.68 -139.62,155.42 -102.18,74.08 -262.29,147.98 -390.34,138.5 23.32,13 50.99,19.11 80.89,20.55"
             style="fill:#040606;fill-opacity:1;fill-rule:nonzero;stroke:none"
             id="path310" />
          <path
             d="m 3621.95,4060.78 c -17.98,58.11 -203.6,-24.34 -231.07,-42.35 -95.07,-62.41 -168.7,-157.04 -226.91,-253.21 -26.15,-43.2 -60.36,-99.4 -66.14,-149.29 88.22,130.84 227.97,228.92 364.6,306.42 33.32,18.91 178.1,78.12 159.52,138.43"
             style="fill:#040606;fill-opacity:1;fill-rule:nonzero;stroke:none"
             id="path312" />
          <path
             d="m 3191.66,4132.18 c 42.22,4.82 83.37,24.85 105.11,63.42 4.77,8.51 8.67,17.42 11.59,26.52 9.8,-12.84 10.42,-31.59 -5.45,-56.46 -24.08,-37.64 -109.18,-93.48 -149.61,-109.45 -11.28,24.42 -16.24,51.37 -14.35,77.11 17.28,-2.53 34.87,-3.17 52.71,-1.14"
             style="fill:#040606;fill-opacity:1;fill-rule:nonzero;stroke:none"
             id="path314" />
          <path
             d="m 3737.83,2167.4 c -87.42,-55.58 -166.85,-122.09 -260.58,-167 -58.12,-27.92 -121.4,-39.71 -181.21,-60.92 209.95,-38.22 404.68,31.03 566.66,170.81 114.35,98.69 215.31,249.37 353.78,315.66 -72.13,-34.54 -148.78,-52.16 -219.74,-92.8 -89.01,-50.94 -172.44,-110.82 -258.91,-165.75"
             style="fill:#040606;fill-opacity:1;fill-rule:nonzero;stroke:none"
             id="path316" />
        </g>
      </g>
      <path
         d="m 5232.49,6108.46 c -64.89,63.28 -72.32,87.12 -52.28,164.98 17.67,-55.76 33.89,-106.96 52.28,-164.98"
         style="fill:#f7f7f6;fill-opacity:1;fill-rule:nonzero;stroke:none"
         id="path318" />
      <path
         d="m 3909.01,2042.48 c 44.78,0.58 89.37,2.71 133.41,12.34 10.55,2.3 18.23,6 24.9,14.56 35.38,45.47 71.92,90.06 106.56,136.08 10.82,14.36 23.13,22.19 40.2,24.55 56.02,7.74 112.01,15.7 168.03,23.47 17.31,2.39 32.51,6.22 45.37,21.05 66.89,77.12 115.75,163.89 146.15,261.35 4.41,14.12 3.73,26.05 -1.77,39.41 -17.36,42.17 -33.08,85.03 -50.94,126.98 -6.31,14.81 -5.63,27.3 -0.1,41.83 18.22,47.81 34.91,96.2 53.13,144.01 4.84,12.69 5.99,24.36 2.13,37.23 -31.13,104 -80.76,197.53 -155.35,277.2 -5.9,6.3 -11.18,10.3 -20.23,11.57 -59.61,8.36 -118.93,19.08 -178.71,25.71 -22.36,2.48 -36.72,11.11 -49.9,27.95 -34.92,44.64 -71.18,88.23 -106.54,132.52 -6.56,8.23 -13.48,14.24 -24.23,16.21 -91.84,16.87 -183.46,16.31 -275.04,-2.13 -13.58,-2.74 -22.29,-10.11 -30.15,-21.09 -30.86,-43.13 -62.51,-85.69 -93.77,-128.54 -8.76,-12 -17.63,-21.87 -34.46,-24.03 -51.53,-6.61 -102.98,-14.18 -154.17,-23.04 -27.09,-4.69 -53.36,-7.06 -74.4,-33.29 -62.66,-78.15 -109.06,-163.97 -138.06,-259.54 -4.18,-13.78 -1.98,-26.63 3.16,-40.02 18.36,-47.73 35.49,-95.94 53.92,-143.64 4.96,-12.82 5,-23.71 -0.4,-36.57 -18,-42.92 -34.83,-86.35 -51.81,-129.7 -3.9,-9.96 -7.61,-19.19 -3.95,-31.41 30.92,-103.3 81.95,-195.05 154.06,-275.24 7.92,-8.81 16.14,-12.19 27.9,-13.64 59.74,-7.37 119.3,-16.21 178.93,-24.42 17.01,-2.35 29.39,-9.82 39.98,-24.55 32,-44.53 65.91,-87.69 99.02,-131.43 6.66,-8.8 13.08,-16.45 25.53,-18.67 46.88,-8.37 93.95,-13.5 141.6,-13.07 z m -1.13,-20.34 c -393.51,0.36 -713.21,320.78 -712.59,714.2 0.62,393.01 321.6,713.2 714.52,712.75 394.11,-0.44 713.33,-321.89 712.48,-717.43 -0.85,-391.58 -321.34,-709.88 -714.41,-709.52"
         style="fill:#ffffff;fill-opacity:1;fill-rule:nonzero;stroke:none"
         id="path322" />
      <path
         id="path324"
         style="fill:#ffffff;fill-opacity:1;fill-rule:nonzero;stroke:none"
         d="M 3775.4444 3007.0555 C 3757.1044 3007.6555 3747.5359 3000.6716 3738.9259 2985.5516 C 3694.1659 2906.9516 3648.6777 2828.7732 3603.0177 2750.6932 C 3597.4377 2741.1432 3595.5693 2733.742 3601.6993 2723.242 C 3648.7293 2642.792 3695.2633 2562.0373 3741.5333 2481.1473 C 3748.6233 2468.7573 3757.0867 2463.1515 3772.0167 2463.2615 C 3863.4567 2463.9515 3954.9173 2463.8799 4046.3673 2463.5399 C 4059.6273 2463.4899 4068.2908 2467.2462 4075.1808 2479.3162 C 4121.3708 2560.2362 4167.9833 2640.9131 4215.0733 2721.3231 C 4221.6033 2732.4631 4220.6595 2740.6045 4214.3995 2751.2645 C 4168.6095 2829.2945 4123.0034 2907.4568 4078.4034 2986.1668 C 4069.5234 3001.8268 4059.3533 3007.4876 4041.5333 3006.9676 C 3997.6733 3005.7076 3953.7585 3006.5621 3909.8585 3006.5721 C 3865.0485 3006.5821 3820.2044 3005.5955 3775.4444 3007.0555 z M 3900.5567 2975.0047 L 3918.6036 2919.4725 L 3956.4112 2803.1053 L 4078.755 2803.1053 L 4137.1437 2803.1053 L 4089.9024 2768.7986 L 3990.923 2696.8895 L 4028.7306 2580.5369 L 4046.7628 2525.0047 L 3999.5362 2559.326 L 3900.5567 2631.2352 L 3801.5772 2559.326 L 3754.336 2525.0047 L 3772.3829 2580.5369 L 3810.1905 2696.8895 L 3711.211 2768.7986 L 3663.9845 2803.1053 L 3722.3585 2803.1053 L 3844.7022 2803.1053 L 3882.5245 2919.4725 L 3900.5567 2975.0047 z M 3900.5567 2852.2361 L 3884.5899 2803.1053 L 3900.5567 2803.1053 L 3916.5089 2803.1053 L 3900.5567 2852.2361 z M 3780.7472 2765.1658 L 3822.5099 2734.8289 L 3827.4464 2750.0047 L 3832.3683 2765.1658 L 3780.7472 2765.1658 z M 3872.2706 2765.1658 L 3863.5255 2738.2713 L 3854.795 2711.3768 L 3877.6759 2694.7508 L 3900.5567 2678.1248 L 3923.4376 2694.7508 L 3946.3185 2711.3768 L 3937.5733 2738.2713 L 3928.8429 2765.1658 L 3900.5567 2765.1658 L 3872.2706 2765.1658 z M 3968.7452 2765.1658 L 3973.6671 2750.0047 L 3978.6036 2734.8289 L 4020.3517 2765.1658 L 3968.7452 2765.1658 z M 3842.461 2673.4373 L 3826.5089 2624.3358 L 3868.2862 2654.6727 L 3855.3663 2664.0623 L 3842.461 2673.4373 z M 3958.6378 2673.4373 L 3945.7472 2664.0623 L 3932.8272 2654.6873 L 3974.5899 2624.3504 L 3958.6378 2673.4373 z " />
      <path
         d="m 4361.23,2752.48 c -62.27,-22.4 -98.35,18.77 -130.3,78.22 -35.81,66.64 -78.95,129.39 -120.13,193.04 -9.06,14 -8.16,22.72 1.44,35.66 31.04,41.8 60.9,84.5 90.43,127.39 8.41,12.2 16.57,15.17 31.81,12.59 55.72,-9.41 111.82,-16.69 167.87,-24.09 13.55,-1.79 23.66,-5.75 30.98,-18.58 38.45,-67.46 77.44,-134.63 116.85,-201.54 6.07,-10.31 4.44,-18.6 -0.17,-28.14 -25.8,-53.46 -51.68,-106.88 -76.84,-160.64 -5.06,-10.81 -11.64,-14.46 -23.19,-14.13 -25.59,0.72 -51.2,0.22 -88.75,0.22"
         style="fill:#ffffff;fill-opacity:1;fill-rule:nonzero;stroke:none"
         id="path326" />
      <path
         d="m 3450.12,2723.9 c 69.37,19.63 112.92,-17.15 144.88,-86.83 29.95,-65.31 70.24,-125.95 107.09,-187.99 8.74,-14.71 8.69,-25.14 -1.03,-39.4 -27.25,-39.98 -53.14,-80.91 -78.62,-122.05 -7.29,-11.77 -14.78,-15.78 -28.78,-13.52 -60.26,9.74 -120.67,18.62 -181.14,27.01 -10.51,1.45 -15.76,6.26 -20.68,14.86 -37.65,65.75 -75.42,131.45 -113.96,196.69 -7.84,13.27 -8.08,24.54 -2.37,38.48 21.77,53.17 42.95,106.59 63.41,160.28 5.37,14.07 11.77,20.11 27.95,17.96 24.39,-3.24 49.18,-3.43 83.25,-5.49"
         style="fill:#ffffff;fill-opacity:1;fill-rule:nonzero;stroke:none"
         id="path328" />
      <path
         d="m 4215.61,2272.24 c -9.06,-3.44 -13.94,7.04 -19.39,16.89 -25.63,46.39 -51.01,92.93 -77.26,138.96 -5.77,10.12 -5.24,17.36 0.52,27.26 50.12,86.09 99.75,172.46 149.18,258.94 6.61,11.58 14.67,16.45 28.44,16.26 52.14,-0.75 104.29,-0.59 156.44,0.04 12.88,0.15 19.19,-4.07 23.93,-16.45 21.23,-55.43 43.29,-110.56 65.91,-165.45 6.03,-14.63 2.35,-25.75 -5.06,-38.39 -37.42,-63.83 -74.24,-128.01 -110.95,-192.25 -4.69,-8.22 -8.58,-14.82 -19.59,-16.42 -62.26,-9.03 -124.39,-18.92 -192.17,-29.39"
         style="fill:#ffffff;fill-opacity:1;fill-rule:nonzero;stroke:none"
         id="path330" />
      <path
         d="m 3448.2,2755.81 c -76.54,-16.85 -117.18,19.51 -140.01,89.18 -11.25,34.34 -45.6,65 -42.44,98.77 3.04,32.35 31.79,62.35 49.51,93.23 22.74,39.65 46.08,78.96 68.46,118.81 7.02,12.51 16.46,17.69 30.45,19.49 56.97,7.34 113.92,14.98 170.6,24.23 13.87,2.26 21.48,0.47 29.3,-11.45 27.6,-42.01 56.04,-83.47 84.81,-124.69 7.27,-10.41 7.82,-18.6 1.27,-29.81 -51.18,-87.6 -101.94,-175.44 -152.23,-263.55 -6.91,-12.1 -14.68,-15.61 -28.43,-14.66 -23.66,1.64 -47.52,0.45 -71.29,0.45"
         style="fill:#ffffff;fill-opacity:1;fill-rule:nonzero;stroke:none"
         id="path332" />
      <path
         d="m 3924.62,2422.78 c 41.1,0.01 82.22,-0.62 123.3,0.34 15.26,0.35 24.45,-3.69 32.62,-17.63 26.29,-44.85 53.93,-88.94 82.18,-132.58 8.16,-12.61 9.4,-21.27 -0.71,-33.64 -35.78,-43.8 -70.74,-88.31 -105.2,-133.17 -10.44,-13.6 -22,-18.9 -39.35,-18.67 -73.05,0.97 -146.13,0.85 -219.19,0.15 -15.09,-0.15 -25.66,3.86 -35,15.92 -35.2,45.44 -70.83,90.57 -107.07,135.19 -9.98,12.28 -9.29,20.52 0.77,32.78 37.03,45.16 73.05,91.17 108.65,137.48 8.25,10.74 17.32,14.2 30.23,14.03 42.92,-0.56 85.85,-0.21 128.77,-0.2"
         style="fill:#ffffff;fill-opacity:1;fill-rule:nonzero;stroke:none"
         id="path334" />
      <path
         d="m 3908.22,3048.92 c -29.28,-0.01 -58.79,2.32 -87.75,-0.64 -31.52,-3.22 -52.48,6.72 -70.9,32.8 -28.95,41 -60.96,79.92 -93.15,118.49 -10.75,12.88 -9.21,21.5 0.12,33.08 36.7,45.54 73.28,91.19 109.08,137.43 8.23,10.64 16.96,14.14 30.01,14.04 75,-0.53 150.02,-0.59 225.02,0.09 14.18,0.13 23.75,-3.88 32.48,-15.17 35.8,-46.24 72.21,-92.02 108.84,-137.62 8.66,-10.78 10.33,-18.59 0.38,-30.66 -36.6,-44.41 -72.08,-89.76 -107.3,-135.28 -9.14,-11.82 -18.74,-17.45 -34.33,-16.94 -37.47,1.22 -75,0.39 -112.5,0.38"
         style="fill:#ffffff;fill-opacity:1;fill-rule:nonzero;stroke:none"
         id="path336" />
      <g
         id="g340"
         transform="scale(10)">
        <text
           xml:space="preserve"
           transform="matrix(0.990392,-0.138286,-0.138286,-0.990392,184.583,513.737)"
           style="font-variant:normal;font-weight:600;font-size:42.5px;font-family:MyriadPro;-inkscape-font-specification:MyriadPro-Semibold;writing-mode:lr-tb;fill:#ffffff;fill-opacity:1;fill-rule:nonzero;stroke:none"
           id="text362"><tspan
             x="0"
             y="0"
             id="tspan342">S</tspan><tspan
             x="-0.84980774"
             y="42.500187"
             id="tspan344">P</tspan><tspan
             x="-3.9312768"
             y="85.000175"
             id="tspan346">O</tspan><tspan
             x="-1.0626676"
             y="127.49976"
             id="tspan348">R</tspan><tspan
             x="-0.12733096"
             y="169.99985"
             id="tspan350">T</tspan><tspan
             x="-74.50071"
             y="1.9078994"
             id="tspan352">O</tspan><tspan
             x="-72.03611"
             y="44.407585"
             id="tspan354">C</tspan><tspan
             x="-70.48468"
             y="86.907669"
             id="tspan356">E</tspan><tspan
             x="-73.055611"
             y="129.40776"
             id="tspan358">A</tspan><tspan
             x="-73.905579"
             y="171.90784"
             id="tspan360">N</tspan></text>
      </g>
    </g>
  </g>
</svg>
